<svg width="256" height="256" viewBox="0 0 256 256" fill="none" xmlns="http://www.w3.org/2000/svg">
<g clip-path="url(#clip0_301_168)">
<rect width="256" height="256" fill="white"/>
<path fill-rule="evenodd" clip-rule="evenodd" d="M0 0H255.822V91.1304L256 162.087L255.822 256H0L0 0Z" fill="url(#paint0_linear_301_168)"/>
<path d="M12.7299 214.996C12.0912 214.13 12 211.621 12 196.749V179.505H128.783H245.567V196.749C245.567 211.621 245.476 214.13 244.837 214.996L244.153 216H128.783H13.4142L12.7299 214.996ZM126.138 198.574L127.096 197.616L125.864 196.521L124.632 195.472H81.3858H38.1394L37.1358 196.566L36.0866 197.661L37.0446 198.619L38.0026 199.577H81.5683H125.134L126.138 198.574ZM222.393 198.346L223.396 197.296L222.393 196.293C221.389 195.289 221.115 195.244 212.265 195.244C203.689 195.244 203.096 195.289 202.229 196.202C201.682 196.703 201.408 197.433 201.545 197.844C202.138 199.304 203.735 199.532 212.585 199.44C221.024 199.349 221.389 199.304 222.393 198.346Z" fill="#E3E3E3"/>
<path d="M117.105 138.266C116.284 137.673 116.238 136.897 116.101 126.268C115.965 115.274 116.01 114.864 116.923 113.678C117.789 112.583 118.2 112.446 120.481 112.492C122.807 112.537 124.039 112.993 132.889 117.373C142.56 122.208 142.697 122.299 143.108 123.987C143.381 125.037 143.381 126.314 143.108 127.409C142.697 129.051 142.56 129.188 132.889 133.978C123.993 138.403 122.853 138.859 120.526 138.905C119.067 138.905 117.652 138.631 117.105 138.266Z" fill="#E3E3E3"/>
<path d="M41.8802 59.3003C40.3748 57.7949 40.2379 53.8717 41.6977 52.0469C42.5188 50.9977 42.975 50.8608 45.3472 50.8608C48.8142 50.8608 49.6809 51.3626 50.3652 53.5523C51.0495 55.7876 50.5933 58.3423 49.316 59.5284C47.765 60.9425 43.34 60.8057 41.8802 59.3003Z" fill="#FDC652"/>
<path d="M54.9727 59.3915C53.5129 57.8404 53.5129 53.2786 55.0183 51.8644C56.5693 50.4046 61.1312 50.4046 62.5454 51.91C64.0052 53.4611 64.0052 58.0229 62.4998 59.4371C60.9487 60.8969 56.3869 60.8969 54.9727 59.3915Z" fill="#14B4B7"/>
<path d="M12 57.3387C12 43.3338 12.0912 40.8704 12.7299 40.0036L13.4142 39H128.783H244.153L244.837 40.0036C245.476 40.8704 245.567 43.3338 245.567 57.3387V73.6701H128.783H12V57.3387ZM47.6737 58.4335C48.951 57.4755 49.4072 55.7876 48.7229 54.2366C48.0843 52.6856 47.2631 52.2294 45.3015 52.2294C43.7505 52.2294 42.1082 54.0541 42.1082 55.742C42.1082 58.2054 45.7121 59.9389 47.6737 58.4335ZM61.1312 58.0686C63.2752 56.0613 61.7698 52.2294 58.8046 52.2294C56.9799 52.2294 55.3376 53.826 55.3376 55.6052C55.3376 58.616 58.8959 60.167 61.1312 58.0686ZM175.679 56.9737C176.865 56.1526 176.957 55.5595 175.907 54.4191C175.314 53.7348 174.448 53.5979 170.889 53.5979C168.517 53.5979 166.236 53.7804 165.78 54.0541C164.412 54.784 164.275 55.8789 165.37 56.8369C166.784 57.9773 174.083 58.1142 175.679 56.9737ZM227.776 56.7912C228.962 55.6052 228.916 55.1946 227.684 54.3278C226.772 53.6892 224.035 53.5979 206.746 53.5979H186.856L186.217 54.784C185.67 55.8789 185.67 56.0613 186.673 56.8369C187.677 57.658 188.772 57.7036 207.293 57.7036C226.27 57.7036 226.909 57.658 227.776 56.7912ZM34.0794 56.2438C34.4443 55.6508 34.3531 55.2402 33.7144 54.5559C33.0302 53.826 32.7108 53.7348 31.7985 54.1454C30.5211 54.7384 30.3843 55.5139 31.4335 56.5631C32.3459 57.4299 33.3951 57.293 34.0794 56.2438Z" fill="#FA4748"/>
<rect x="73.1289" y="89.1804" width="126.363" height="70.7088" fill="#4E7693"/>
<path d="M35.7216 200.033C34.3075 198.619 34.3531 196.749 35.8585 195.152L36.7709 194.103H81.3402C125.773 194.103 125.91 194.103 127.141 195.061C128.647 196.247 128.783 198.665 127.415 200.033C126.503 200.946 125.91 200.946 81.5683 200.946C37.2271 200.946 36.634 200.946 35.7216 200.033Z" fill="#4E7693"/>
<path d="M201.454 200.398C200.906 200.125 200.222 199.304 199.903 198.528C199.447 197.433 199.447 196.977 199.994 195.973C201.226 193.784 202.138 193.601 212.813 193.738C222.347 193.875 222.758 193.921 223.716 194.879C225.039 196.201 225.039 198.391 223.716 199.714C222.758 200.672 222.347 200.718 212.585 200.809C206.061 200.855 202.092 200.718 201.454 200.398Z" fill="#4E7693"/>
<path d="M12 126.131V76.4072H128.783H245.567V126.131V175.856H128.783H12V126.131ZM157.204 156.24C163.225 155.282 168.244 151.45 170.889 145.884L172.349 142.782L172.623 128.412C172.805 120.52 172.942 113.997 172.988 113.951C173.216 113.449 173.9 113.997 174.083 114.864C174.22 115.411 174.22 114.043 174.083 111.762C173.946 109.526 173.49 106.698 173.033 105.557C171.254 100.722 167.149 96.5706 162.222 94.5634L159.576 93.5142H128.783H97.991L95.3451 94.5634C90.4183 96.5706 86.3126 100.722 84.5335 105.557C83.6667 107.884 82.8456 115.411 83.5755 114.271C83.8492 113.906 84.2142 113.769 84.3966 113.997C84.5791 114.179 84.8528 120.748 84.9897 128.549L85.2178 142.782L86.6776 145.884C89.1866 151.176 94.4783 155.327 99.9069 156.24C103.055 156.741 154.011 156.787 157.204 156.24Z" fill="#4E7693"/>
<path d="M12 177.68V174.487H128.783H245.567V177.68V180.874H128.783H12V177.68Z" fill="#385F82"/>
<path d="M12 75.0386V72.3015H128.783H245.567V75.0386V77.7757H128.783H12V75.0386Z" fill="#385F82"/>
<rect opacity="0.4" x="36.1779" y="87.3557" width="57.9356" height="35.1263" rx="5" fill="#0F0E0E"/>
<g opacity="0.8">
<path d="M57.1758 110.537C55.8343 110.301 54.7052 109.32 54.1937 107.947C54.0296 107.496 54.0103 107.103 53.9814 104.318C53.9524 101.875 53.9717 101.179 54.0682 101.14C54.1262 101.12 54.1648 101.061 54.1262 101.012C54.0972 100.963 54.1455 100.855 54.2227 100.767C54.3095 100.679 54.3578 100.571 54.3288 100.522C54.2902 100.473 54.3192 100.433 54.3771 100.433C54.435 100.433 54.4543 100.394 54.4253 100.335C54.3964 100.286 54.4157 100.237 54.4736 100.237C54.5315 100.237 54.5604 100.198 54.5315 100.149C54.5025 100.1 54.5894 99.9919 54.7245 99.8938C54.8596 99.8055 54.9465 99.7074 54.9175 99.678C54.85 99.6093 55.1395 99.2562 55.2649 99.2562C55.3035 99.2562 55.429 99.1679 55.5352 99.06C55.6413 98.9521 55.8633 98.8344 56.0177 98.7952C56.1818 98.7658 56.3072 98.7069 56.3072 98.6677C56.3072 98.5598 57.1468 98.344 57.2723 98.4225C57.3302 98.4617 57.4364 98.4421 57.5039 98.3832C57.639 98.2655 69.1137 98.2851 69.8472 98.4028C70.8219 98.55 72.202 99.5505 72.5205 100.345C72.588 100.502 72.6845 100.629 72.7328 100.629C72.781 100.629 72.8003 100.669 72.7617 100.718C72.7328 100.767 72.7521 100.835 72.81 100.875C72.8679 100.914 72.8872 100.983 72.8582 101.032C72.8196 101.081 72.8582 101.12 72.9354 101.12C73.0126 101.12 73.0899 101.218 73.1188 101.346C73.1381 101.463 73.1285 102.935 73.0995 104.602L73.0512 107.643L72.7424 108.31C72.1827 109.507 71.1211 110.331 69.8472 110.537C69.191 110.654 57.8127 110.644 57.1758 110.537ZM64.0857 105.2C65.7553 104.367 66.1703 104.131 66.2475 103.925C66.4501 103.376 66.3054 103.258 64.0664 102.15C62.9083 101.581 61.8757 101.12 61.7502 101.12C61.6248 101.12 61.4414 101.238 61.3256 101.385C61.1326 101.64 61.1229 101.738 61.1519 103.798C61.1808 105.789 61.1905 105.956 61.3642 106.083C61.4704 106.162 61.6537 106.221 61.7792 106.221C61.9046 106.221 62.9469 105.76 64.0857 105.2Z" fill="#FA4748"/>
<rect x="58.9681" y="101.203" width="9.27048" height="6.63571" fill="#FDF5F6"/>
<path d="M57.2116 111.449C55.8551 111.215 54.7134 110.239 54.1962 108.873C54.0303 108.424 54.0108 108.034 53.9815 105.262C53.9523 102.833 53.9718 102.14 54.0694 102.101C54.1279 102.081 54.1669 102.023 54.1279 101.974C54.0986 101.925 54.1474 101.818 54.2255 101.73C54.3133 101.642 54.3621 101.535 54.3328 101.486C54.2938 101.437 54.3231 101.398 54.3816 101.398C54.4402 101.398 54.4597 101.359 54.4304 101.301C54.4011 101.252 54.4207 101.203 54.4792 101.203C54.5378 101.203 54.567 101.164 54.5378 101.115C54.5085 101.066 54.5963 100.959 54.7329 100.861C54.8695 100.774 54.9574 100.676 54.9281 100.647C54.8598 100.578 55.1525 100.227 55.2794 100.227C55.3184 100.227 55.4453 100.139 55.5526 100.032C55.66 99.9246 55.8844 99.8075 56.0406 99.7685C56.2064 99.7392 56.3333 99.6807 56.3333 99.6416C56.3333 99.5343 57.1823 99.3196 57.3091 99.3977C57.3677 99.4367 57.475 99.4172 57.5433 99.3586C57.68 99.2415 69.2827 99.2611 70.0243 99.3782C71.0099 99.5245 72.4054 100.52 72.7274 101.31C72.7957 101.466 72.8933 101.593 72.9421 101.593C72.9909 101.593 73.0104 101.632 72.9714 101.681C72.9421 101.73 72.9616 101.798 73.0202 101.837C73.0787 101.876 73.0982 101.945 73.069 101.993C73.0299 102.042 73.069 102.081 73.147 102.081C73.2251 102.081 73.3032 102.179 73.3324 102.306C73.352 102.423 73.3422 103.887 73.3129 105.545L73.2641 108.571L72.9519 109.234C72.3859 110.425 71.3125 111.244 70.0243 111.449C69.3608 111.566 57.8556 111.557 57.2116 111.449ZM64.1986 106.141C65.8868 105.311 66.3064 105.077 66.3845 104.872C66.5894 104.326 66.443 104.209 64.1791 103.106C63.0081 102.54 61.9639 102.081 61.837 102.081C61.7102 102.081 61.5248 102.198 61.4077 102.345C61.2125 102.598 61.2027 102.696 61.232 104.745C61.2613 106.726 61.2711 106.892 61.4467 107.019C61.554 107.097 61.7395 107.156 61.8663 107.156C61.9932 107.156 63.0471 106.697 64.1986 106.141Z" fill="#E20F0A"/>
</g>
<rect opacity="0.4" x="99.6753" y="87.3557" width="57.9356" height="35.1263" rx="5" fill="#0F0E0E"/>
<g opacity="0.8">
<path d="M119.673 110.537C118.332 110.301 117.203 109.32 116.691 107.947C116.527 107.496 116.508 107.103 116.479 104.318C116.45 101.875 116.469 101.179 116.566 101.14C116.624 101.12 116.662 101.061 116.624 101.012C116.595 100.963 116.643 100.855 116.72 100.767C116.807 100.679 116.855 100.571 116.826 100.522C116.788 100.473 116.817 100.433 116.874 100.433C116.932 100.433 116.952 100.394 116.923 100.335C116.894 100.286 116.913 100.237 116.971 100.237C117.029 100.237 117.058 100.198 117.029 100.149C117 100.1 117.087 99.9919 117.222 99.8938C117.357 99.8055 117.444 99.7074 117.415 99.678C117.347 99.6093 117.637 99.2562 117.762 99.2562C117.801 99.2562 117.926 99.1679 118.033 99.06C118.139 98.9521 118.361 98.8344 118.515 98.7952C118.679 98.7658 118.805 98.7069 118.805 98.6677C118.805 98.5598 119.644 98.344 119.77 98.4225C119.828 98.4617 119.934 98.4421 120.001 98.3832C120.136 98.2655 131.611 98.2851 132.345 98.4028C133.319 98.55 134.699 99.5505 135.018 100.345C135.085 100.502 135.182 100.629 135.23 100.629C135.278 100.629 135.298 100.669 135.259 100.718C135.23 100.767 135.249 100.835 135.307 100.875C135.365 100.914 135.385 100.983 135.356 101.032C135.317 101.081 135.356 101.12 135.433 101.12C135.51 101.12 135.587 101.218 135.616 101.346C135.635 101.463 135.626 102.935 135.597 104.602L135.549 107.643L135.24 108.31C134.68 109.507 133.618 110.331 132.345 110.537C131.688 110.654 120.31 110.644 119.673 110.537ZM126.583 105.2C128.253 104.367 128.668 104.131 128.745 103.925C128.948 103.376 128.803 103.258 126.564 102.15C125.406 101.581 124.373 101.12 124.248 101.12C124.122 101.12 123.939 101.238 123.823 101.385C123.63 101.64 123.62 101.738 123.649 103.798C123.678 105.789 123.688 105.956 123.862 106.083C123.968 106.162 124.151 106.221 124.277 106.221C124.402 106.221 125.444 105.76 126.583 105.2Z" fill="#FA4748"/>
<rect x="121.465" y="101.203" width="9.27048" height="6.63571" fill="#FDF5F6"/>
<path d="M119.709 111.449C118.353 111.215 117.211 110.239 116.694 108.873C116.528 108.424 116.508 108.034 116.479 105.262C116.45 102.833 116.469 102.14 116.567 102.101C116.625 102.081 116.664 102.023 116.625 101.974C116.596 101.925 116.645 101.818 116.723 101.73C116.811 101.642 116.859 101.535 116.83 101.486C116.791 101.437 116.82 101.398 116.879 101.398C116.938 101.398 116.957 101.359 116.928 101.301C116.899 101.252 116.918 101.203 116.977 101.203C117.035 101.203 117.064 101.164 117.035 101.115C117.006 101.066 117.094 100.959 117.23 100.861C117.367 100.774 117.455 100.676 117.425 100.647C117.357 100.578 117.65 100.227 117.777 100.227C117.816 100.227 117.943 100.139 118.05 100.032C118.157 99.9246 118.382 99.8075 118.538 99.7685C118.704 99.7392 118.831 99.6807 118.831 99.6416C118.831 99.5343 119.68 99.3196 119.807 99.3977C119.865 99.4367 119.972 99.4172 120.041 99.3586C120.177 99.2415 131.78 99.2611 132.522 99.3782C133.507 99.5245 134.903 100.52 135.225 101.31C135.293 101.466 135.391 101.593 135.439 101.593C135.488 101.593 135.508 101.632 135.469 101.681C135.439 101.73 135.459 101.798 135.518 101.837C135.576 101.876 135.596 101.945 135.566 101.993C135.527 102.042 135.566 102.081 135.644 102.081C135.722 102.081 135.801 102.179 135.83 102.306C135.849 102.423 135.84 103.887 135.81 105.545L135.762 108.571L135.449 109.234C134.883 110.425 133.81 111.244 132.522 111.449C131.858 111.566 120.353 111.557 119.709 111.449ZM126.696 106.141C128.384 105.311 128.804 105.077 128.882 104.872C129.087 104.326 128.94 104.209 126.676 103.106C125.505 102.54 124.461 102.081 124.334 102.081C124.208 102.081 124.022 102.198 123.905 102.345C123.71 102.598 123.7 102.696 123.729 104.745C123.759 106.726 123.768 106.892 123.944 107.019C124.051 107.097 124.237 107.156 124.364 107.156C124.491 107.156 125.544 106.697 126.696 106.141Z" fill="#E20F0A"/>
</g>
<rect opacity="0.4" x="161.173" y="87.3557" width="57.9356" height="35.1263" rx="5" fill="#0F0E0E"/>
<g opacity="0.8">
<path d="M182.171 110.537C180.829 110.301 179.7 109.32 179.189 107.947C179.024 107.496 179.005 107.103 178.976 104.318C178.947 101.875 178.967 101.179 179.063 101.14C179.121 101.12 179.16 101.061 179.121 101.012C179.092 100.963 179.14 100.855 179.217 100.767C179.304 100.679 179.353 100.571 179.324 100.522C179.285 100.473 179.314 100.433 179.372 100.433C179.43 100.433 179.449 100.394 179.42 100.335C179.391 100.286 179.41 100.237 179.468 100.237C179.526 100.237 179.555 100.198 179.526 100.149C179.497 100.1 179.584 99.9919 179.719 99.8938C179.854 99.8055 179.941 99.7074 179.912 99.678C179.845 99.6093 180.134 99.2562 180.26 99.2562C180.298 99.2562 180.424 99.1679 180.53 99.06C180.636 98.9521 180.858 98.8344 181.013 98.7952C181.177 98.7658 181.302 98.7069 181.302 98.6677C181.302 98.5598 182.142 98.344 182.267 98.4225C182.325 98.4617 182.431 98.4421 182.499 98.3832C182.634 98.2655 194.109 98.2851 194.842 98.4028C195.817 98.55 197.197 99.5505 197.515 100.345C197.583 100.502 197.679 100.629 197.728 100.629C197.776 100.629 197.795 100.669 197.757 100.718C197.728 100.767 197.747 100.835 197.805 100.875C197.863 100.914 197.882 100.983 197.853 101.032C197.814 101.081 197.853 101.12 197.93 101.12C198.007 101.12 198.085 101.218 198.114 101.346C198.133 101.463 198.123 102.935 198.094 104.602L198.046 107.643L197.737 108.31C197.177 109.507 196.116 110.331 194.842 110.537C194.186 110.654 182.808 110.644 182.171 110.537ZM189.081 105.2C190.75 104.367 191.165 104.131 191.242 103.925C191.445 103.376 191.3 103.258 189.061 102.15C187.903 101.581 186.871 101.12 186.745 101.12C186.62 101.12 186.436 101.238 186.32 101.385C186.127 101.64 186.118 101.738 186.147 103.798C186.176 105.789 186.185 105.956 186.359 106.083C186.465 106.162 186.649 106.221 186.774 106.221C186.899 106.221 187.942 105.76 189.081 105.2Z" fill="#FA4748"/>
<rect x="183.963" y="101.203" width="9.27048" height="6.63571" fill="#FDF5F6"/>
<path d="M182.206 111.449C180.85 111.215 179.708 110.239 179.191 108.873C179.025 108.424 179.006 108.034 178.976 105.262C178.947 102.833 178.967 102.14 179.064 102.101C179.123 102.081 179.162 102.023 179.123 101.974C179.093 101.925 179.142 101.818 179.22 101.73C179.308 101.642 179.357 101.535 179.328 101.486C179.289 101.437 179.318 101.398 179.376 101.398C179.435 101.398 179.455 101.359 179.425 101.301C179.396 101.252 179.415 101.203 179.474 101.203C179.533 101.203 179.562 101.164 179.533 101.115C179.503 101.066 179.591 100.959 179.728 100.861C179.864 100.774 179.952 100.676 179.923 100.647C179.855 100.578 180.147 100.227 180.274 100.227C180.313 100.227 180.44 100.139 180.547 100.032C180.655 99.9246 180.879 99.8075 181.035 99.7685C181.201 99.7392 181.328 99.6807 181.328 99.6416C181.328 99.5343 182.177 99.3196 182.304 99.3977C182.363 99.4367 182.47 99.4172 182.538 99.3586C182.675 99.2415 194.278 99.2611 195.019 99.3782C196.005 99.5245 197.4 100.52 197.722 101.31C197.791 101.466 197.888 101.593 197.937 101.593C197.986 101.593 198.005 101.632 197.966 101.681C197.937 101.73 197.956 101.798 198.015 101.837C198.074 101.876 198.093 101.945 198.064 101.993C198.025 102.042 198.064 102.081 198.142 102.081C198.22 102.081 198.298 102.179 198.327 102.306C198.347 102.423 198.337 103.887 198.308 105.545L198.259 108.571L197.947 109.234C197.381 110.425 196.307 111.244 195.019 111.449C194.356 111.566 182.85 111.557 182.206 111.449ZM189.193 106.141C190.882 105.311 191.301 105.077 191.379 104.872C191.584 104.326 191.438 104.209 189.174 103.106C188.003 102.54 186.959 102.081 186.832 102.081C186.705 102.081 186.52 102.198 186.402 102.345C186.207 102.598 186.198 102.696 186.227 104.745C186.256 106.726 186.266 106.892 186.442 107.019C186.549 107.097 186.734 107.156 186.861 107.156C186.988 107.156 188.042 106.697 189.193 106.141Z" fill="#E20F0A"/>
</g>
<rect opacity="0.4" x="36.1779" y="130.693" width="57.9356" height="35.1263" rx="5" fill="#0F0E0E"/>
<g opacity="0.8">
<path d="M57.1758 153.874C55.8343 153.639 54.7052 152.658 54.1937 151.285C54.0296 150.833 54.0103 150.441 53.9814 147.655C53.9524 145.213 53.9717 144.516 54.0682 144.477C54.1262 144.458 54.1648 144.399 54.1262 144.35C54.0972 144.301 54.1455 144.193 54.2227 144.104C54.3095 144.016 54.3578 143.908 54.3288 143.859C54.2902 143.81 54.3192 143.771 54.3771 143.771C54.435 143.771 54.4543 143.732 54.4253 143.673C54.3964 143.624 54.4157 143.575 54.4736 143.575C54.5315 143.575 54.5604 143.535 54.5315 143.486C54.5025 143.437 54.5894 143.329 54.7245 143.231C54.8596 143.143 54.9465 143.045 54.9175 143.016C54.85 142.947 55.1395 142.594 55.2649 142.594C55.3035 142.594 55.429 142.506 55.5352 142.398C55.6413 142.29 55.8633 142.172 56.0177 142.133C56.1818 142.103 56.3072 142.045 56.3072 142.005C56.3072 141.897 57.1468 141.682 57.2723 141.76C57.3302 141.799 57.4364 141.78 57.5039 141.721C57.639 141.603 69.1137 141.623 69.8472 141.74C70.8219 141.888 72.202 142.888 72.5205 143.683C72.588 143.84 72.6845 143.967 72.7328 143.967C72.781 143.967 72.8003 144.006 72.7617 144.055C72.7328 144.104 72.7521 144.173 72.81 144.212C72.8679 144.252 72.8872 144.32 72.8582 144.369C72.8196 144.418 72.8582 144.458 72.9354 144.458C73.0126 144.458 73.0899 144.556 73.1188 144.683C73.1381 144.801 73.1285 146.272 73.0995 147.94L73.0512 150.98L72.7424 151.647C72.1827 152.844 71.1211 153.668 69.8472 153.874C69.191 153.992 57.8127 153.982 57.1758 153.874ZM64.0857 148.538C65.7553 147.704 66.1703 147.469 66.2475 147.263C66.4501 146.714 66.3054 146.596 64.0664 145.487C62.9083 144.919 61.8757 144.458 61.7502 144.458C61.6248 144.458 61.4414 144.575 61.3256 144.722C61.1326 144.977 61.1229 145.075 61.1519 147.135C61.1808 149.127 61.1905 149.293 61.3642 149.421C61.4704 149.499 61.6537 149.558 61.7792 149.558C61.9046 149.558 62.9469 149.097 64.0857 148.538Z" fill="#FA4748"/>
<rect x="58.9681" y="144.541" width="9.27048" height="6.63571" fill="#FDF5F6"/>
<path d="M57.2116 154.787C55.8551 154.553 54.7134 153.577 54.1962 152.211C54.0303 151.762 54.0108 151.372 53.9815 148.6C53.9523 146.17 53.9718 145.477 54.0694 145.438C54.1279 145.419 54.1669 145.36 54.1279 145.312C54.0986 145.263 54.1474 145.155 54.2255 145.068C54.3133 144.98 54.3621 144.872 54.3328 144.824C54.2938 144.775 54.3231 144.736 54.3816 144.736C54.4402 144.736 54.4597 144.697 54.4304 144.638C54.4011 144.589 54.4207 144.541 54.4792 144.541C54.5378 144.541 54.567 144.502 54.5378 144.453C54.5085 144.404 54.5963 144.297 54.7329 144.199C54.8695 144.111 54.9574 144.014 54.9281 143.984C54.8598 143.916 55.1525 143.565 55.2794 143.565C55.3184 143.565 55.4453 143.477 55.5526 143.37C55.66 143.262 55.8844 143.145 56.0406 143.106C56.2064 143.077 56.3333 143.018 56.3333 142.979C56.3333 142.872 57.1823 142.657 57.3091 142.735C57.3677 142.774 57.475 142.755 57.5433 142.696C57.68 142.579 69.2827 142.599 70.0243 142.716C71.0099 142.862 72.4054 143.858 72.7274 144.648C72.7957 144.804 72.8933 144.931 72.9421 144.931C72.9909 144.931 73.0104 144.97 72.9714 145.019C72.9421 145.068 72.9616 145.136 73.0202 145.175C73.0787 145.214 73.0982 145.282 73.069 145.331C73.0299 145.38 73.069 145.419 73.147 145.419C73.2251 145.419 73.3032 145.516 73.3324 145.643C73.352 145.76 73.3422 147.224 73.3129 148.883L73.2641 151.908L72.9519 152.572C72.3859 153.762 71.3125 154.582 70.0243 154.787C69.3608 154.904 57.8556 154.894 57.2116 154.787ZM64.1986 149.478C65.8868 148.649 66.3064 148.415 66.3845 148.21C66.5894 147.663 66.443 147.546 64.1791 146.444C63.0081 145.878 61.9639 145.419 61.837 145.419C61.7102 145.419 61.5248 145.536 61.4077 145.682C61.2125 145.936 61.2027 146.034 61.232 148.083C61.2613 150.064 61.2711 150.23 61.4467 150.357C61.554 150.435 61.7395 150.493 61.8663 150.493C61.9932 150.493 63.0471 150.035 64.1986 149.478Z" fill="#E20F0A"/>
</g>
<rect opacity="0.4" x="98.6753" y="130.693" width="57.9356" height="35.1263" rx="5" fill="#0F0E0E"/>
<g opacity="0.8">
<path d="M119.673 153.874C118.332 153.639 117.203 152.658 116.691 151.285C116.527 150.833 116.508 150.441 116.479 147.655C116.45 145.213 116.469 144.516 116.566 144.477C116.624 144.458 116.662 144.399 116.624 144.35C116.595 144.301 116.643 144.193 116.72 144.104C116.807 144.016 116.855 143.908 116.826 143.859C116.788 143.81 116.817 143.771 116.874 143.771C116.932 143.771 116.952 143.732 116.923 143.673C116.894 143.624 116.913 143.575 116.971 143.575C117.029 143.575 117.058 143.535 117.029 143.486C117 143.437 117.087 143.329 117.222 143.231C117.357 143.143 117.444 143.045 117.415 143.016C117.347 142.947 117.637 142.594 117.762 142.594C117.801 142.594 117.926 142.506 118.033 142.398C118.139 142.29 118.361 142.172 118.515 142.133C118.679 142.103 118.805 142.045 118.805 142.005C118.805 141.897 119.644 141.682 119.77 141.76C119.828 141.799 119.934 141.78 120.001 141.721C120.136 141.603 131.611 141.623 132.345 141.74C133.319 141.888 134.699 142.888 135.018 143.683C135.085 143.84 135.182 143.967 135.23 143.967C135.278 143.967 135.298 144.006 135.259 144.055C135.23 144.104 135.249 144.173 135.307 144.212C135.365 144.252 135.385 144.32 135.356 144.369C135.317 144.418 135.356 144.458 135.433 144.458C135.51 144.458 135.587 144.556 135.616 144.683C135.635 144.801 135.626 146.272 135.597 147.94L135.549 150.98L135.24 151.647C134.68 152.844 133.618 153.668 132.345 153.874C131.688 153.992 120.31 153.982 119.673 153.874ZM126.583 148.538C128.253 147.704 128.668 147.469 128.745 147.263C128.948 146.714 128.803 146.596 126.564 145.487C125.406 144.919 124.373 144.458 124.248 144.458C124.122 144.458 123.939 144.575 123.823 144.722C123.63 144.977 123.62 145.075 123.649 147.135C123.678 149.127 123.688 149.293 123.862 149.421C123.968 149.499 124.151 149.558 124.277 149.558C124.402 149.558 125.444 149.097 126.583 148.538Z" fill="#FA4748"/>
<rect x="121.465" y="144.541" width="9.27048" height="6.63571" fill="#FDF5F6"/>
<path d="M119.709 154.787C118.353 154.553 117.211 153.577 116.694 152.211C116.528 151.762 116.508 151.372 116.479 148.6C116.45 146.17 116.469 145.477 116.567 145.438C116.625 145.419 116.664 145.36 116.625 145.312C116.596 145.263 116.645 145.155 116.723 145.068C116.811 144.98 116.859 144.872 116.83 144.824C116.791 144.775 116.82 144.736 116.879 144.736C116.938 144.736 116.957 144.697 116.928 144.638C116.899 144.589 116.918 144.541 116.977 144.541C117.035 144.541 117.064 144.502 117.035 144.453C117.006 144.404 117.094 144.297 117.23 144.199C117.367 144.111 117.455 144.014 117.425 143.984C117.357 143.916 117.65 143.565 117.777 143.565C117.816 143.565 117.943 143.477 118.05 143.37C118.157 143.262 118.382 143.145 118.538 143.106C118.704 143.077 118.831 143.018 118.831 142.979C118.831 142.872 119.68 142.657 119.807 142.735C119.865 142.774 119.972 142.755 120.041 142.696C120.177 142.579 131.78 142.599 132.522 142.716C133.507 142.862 134.903 143.858 135.225 144.648C135.293 144.804 135.391 144.931 135.439 144.931C135.488 144.931 135.508 144.97 135.469 145.019C135.439 145.068 135.459 145.136 135.518 145.175C135.576 145.214 135.596 145.282 135.566 145.331C135.527 145.38 135.566 145.419 135.644 145.419C135.722 145.419 135.801 145.516 135.83 145.643C135.849 145.76 135.84 147.224 135.81 148.883L135.762 151.908L135.449 152.572C134.883 153.762 133.81 154.582 132.522 154.787C131.858 154.904 120.353 154.894 119.709 154.787ZM126.696 149.478C128.384 148.649 128.804 148.415 128.882 148.21C129.087 147.663 128.94 147.546 126.676 146.444C125.505 145.878 124.461 145.419 124.334 145.419C124.208 145.419 124.022 145.536 123.905 145.682C123.71 145.936 123.7 146.034 123.729 148.083C123.759 150.064 123.768 150.23 123.944 150.357C124.051 150.435 124.237 150.493 124.364 150.493C124.491 150.493 125.544 150.035 126.696 149.478Z" fill="#E20F0A"/>
</g>
<rect opacity="0.4" x="161.173" y="130.693" width="57.9356" height="35.1263" rx="5" fill="#0F0E0E"/>
<g opacity="0.8">
<path d="M182.171 153.874C180.829 153.639 179.7 152.658 179.189 151.285C179.024 150.833 179.005 150.441 178.976 147.655C178.947 145.213 178.967 144.516 179.063 144.477C179.121 144.458 179.16 144.399 179.121 144.35C179.092 144.301 179.14 144.193 179.217 144.104C179.304 144.016 179.353 143.908 179.324 143.859C179.285 143.81 179.314 143.771 179.372 143.771C179.43 143.771 179.449 143.732 179.42 143.673C179.391 143.624 179.41 143.575 179.468 143.575C179.526 143.575 179.555 143.535 179.526 143.486C179.497 143.437 179.584 143.329 179.719 143.231C179.854 143.143 179.941 143.045 179.912 143.016C179.845 142.947 180.134 142.594 180.26 142.594C180.298 142.594 180.424 142.506 180.53 142.398C180.636 142.29 180.858 142.172 181.013 142.133C181.177 142.103 181.302 142.045 181.302 142.005C181.302 141.897 182.142 141.682 182.267 141.76C182.325 141.799 182.431 141.78 182.499 141.721C182.634 141.603 194.109 141.623 194.842 141.74C195.817 141.888 197.197 142.888 197.515 143.683C197.583 143.84 197.679 143.967 197.728 143.967C197.776 143.967 197.795 144.006 197.757 144.055C197.728 144.104 197.747 144.173 197.805 144.212C197.863 144.252 197.882 144.32 197.853 144.369C197.814 144.418 197.853 144.458 197.93 144.458C198.007 144.458 198.085 144.556 198.114 144.683C198.133 144.801 198.123 146.272 198.094 147.94L198.046 150.98L197.737 151.647C197.177 152.844 196.116 153.668 194.842 153.874C194.186 153.992 182.808 153.982 182.171 153.874ZM189.081 148.538C190.75 147.704 191.165 147.469 191.242 147.263C191.445 146.714 191.3 146.596 189.061 145.487C187.903 144.919 186.871 144.458 186.745 144.458C186.62 144.458 186.436 144.575 186.32 144.722C186.127 144.977 186.118 145.075 186.147 147.135C186.176 149.127 186.185 149.293 186.359 149.421C186.465 149.499 186.649 149.558 186.774 149.558C186.899 149.558 187.942 149.097 189.081 148.538Z" fill="#FA4748"/>
<rect x="183.963" y="144.541" width="9.27048" height="6.63571" fill="#FDF5F6"/>
<path d="M182.206 154.787C180.85 154.553 179.708 153.577 179.191 152.211C179.025 151.762 179.006 151.372 178.976 148.6C178.947 146.17 178.967 145.477 179.064 145.438C179.123 145.419 179.162 145.36 179.123 145.312C179.093 145.263 179.142 145.155 179.22 145.068C179.308 144.98 179.357 144.872 179.328 144.824C179.289 144.775 179.318 144.736 179.376 144.736C179.435 144.736 179.455 144.697 179.425 144.638C179.396 144.589 179.415 144.541 179.474 144.541C179.533 144.541 179.562 144.502 179.533 144.453C179.503 144.404 179.591 144.297 179.728 144.199C179.864 144.111 179.952 144.014 179.923 143.984C179.855 143.916 180.147 143.565 180.274 143.565C180.313 143.565 180.44 143.477 180.547 143.37C180.655 143.262 180.879 143.145 181.035 143.106C181.201 143.077 181.328 143.018 181.328 142.979C181.328 142.872 182.177 142.657 182.304 142.735C182.363 142.774 182.47 142.755 182.538 142.696C182.675 142.579 194.278 142.599 195.019 142.716C196.005 142.862 197.4 143.858 197.722 144.648C197.791 144.804 197.888 144.931 197.937 144.931C197.986 144.931 198.005 144.97 197.966 145.019C197.937 145.068 197.956 145.136 198.015 145.175C198.074 145.214 198.093 145.282 198.064 145.331C198.025 145.38 198.064 145.419 198.142 145.419C198.22 145.419 198.298 145.516 198.327 145.643C198.347 145.76 198.337 147.224 198.308 148.883L198.259 151.908L197.947 152.572C197.381 153.762 196.307 154.582 195.019 154.787C194.356 154.904 182.85 154.894 182.206 154.787ZM189.193 149.478C190.882 148.649 191.301 148.415 191.379 148.21C191.584 147.663 191.438 147.546 189.174 146.444C188.003 145.878 186.959 145.419 186.832 145.419C186.705 145.419 186.52 145.536 186.402 145.682C186.207 145.936 186.198 146.034 186.227 148.083C186.256 150.064 186.266 150.23 186.442 150.357C186.549 150.435 186.734 150.493 186.861 150.493C186.988 150.493 188.042 150.035 189.193 149.478Z" fill="#E20F0A"/>
</g>
<path d="M30.2474 57.9317C28.0121 55.5595 29.4719 52.2294 32.7564 52.2294C33.8513 52.2294 34.5356 52.5487 35.2198 53.4155C36.2234 54.6928 36.4972 55.8789 35.7673 55.8789C35.5392 55.8789 35.4479 56.2438 35.5848 56.7456C35.8585 57.7948 34.1706 59.0722 32.5283 59.0722C31.8441 59.0722 30.8405 58.5703 30.2474 57.9317Z" fill="#BF0000"/>
<path d="M164.001 58.0229C162.724 56.6544 162.678 54.3734 163.91 53.1417C164.731 52.3206 165.415 52.2294 170.707 52.2294C176.546 52.2294 176.637 52.2294 177.55 53.4155C178.553 54.6928 178.827 55.8789 178.097 55.8789C177.869 55.8789 177.778 56.2438 177.915 56.7456C178.371 58.4791 176.5 59.0722 170.524 59.0722C165.324 59.0722 164.913 59.0265 164.001 58.0229Z" fill="#BF0000"/>
<path d="M185.396 58.2966C183.936 57.0649 183.708 54.9665 184.894 53.4611L185.852 52.2294H206.974C226.453 52.2294 228.186 52.275 229.007 53.0049C229.509 53.4611 230.057 54.2822 230.239 54.8296C230.604 56.0157 229.829 57.7036 228.916 57.7036C228.551 57.7036 228.278 57.9773 228.369 58.2966C228.414 58.7072 223.944 58.8897 207.43 58.9809C187.905 59.0722 186.308 59.0265 185.396 58.2966Z" fill="#BF0000"/>
<line x1="235.011" y1="29.1078" x2="17.0113" y2="228.108" stroke="#E20F0A" stroke-width="3"/>
</g>
<defs>
<linearGradient id="paint0_linear_301_168" x1="162.095" y1="405.824" x2="475.362" y2="95.325" gradientUnits="userSpaceOnUse">
<stop stop-color="#FEC754"/>
<stop offset="0.278014" stop-color="#FFDB8E"/>
<stop offset="0.475432" stop-color="#F8D58B"/>
<stop offset="0.640625" stop-color="#FED47C"/>
<stop offset="0.82488" stop-color="#EBD7AD"/>
<stop offset="1" stop-color="#0061FF"/>
<stop offset="1" stop-color="#FEC754"/>
</linearGradient>
<clipPath id="clip0_301_168">
<rect width="256" height="256" fill="white"/>
</clipPath>
</defs>
</svg>
